<svg width="320" height="200" viewBox="0 0 320 200" fill="none" xmlns="http://www.w3.org/2000/svg">
  <rect width="320" height="200" rx="24" fill="#0B0B0B"/>
  <rect x="20" y="80" width="220" height="80" rx="16" fill="#1F2937"/>
  <rect x="40" y="60" width="180" height="40" rx="12" fill="#111827"/>
  <rect x="220" y="90" width="80" height="45" rx="12" fill="#0F172A"/>
  <circle cx="70" cy="160" r="24" fill="#183963"/>
  <circle cx="70" cy="160" r="12" fill="#14395A"/>
  <circle cx="220" cy="160" r="24" fill="#183963"/>
  <circle cx="220" cy="160" r="12" fill="#14395A"/>
  <rect x="40" y="50" width="40" height="20" rx="6" fill="#14B8A6"/>
  <rect x="160" y="50" width="60" height="20" rx="6" fill="#10B981"/>
  <rect x="100" y="20" width="80" height="30" rx="15" fill="#2563EB"/>
  <rect x="120" y="5" width="40" height="15" rx="6" fill="#F59E0B"/>
  <path d="M240 95H280C286.627 95 292 100.373 292 107V125H240V95Z" fill="#0F172A"/>
  <rect x="250" y="105" width="20" height="10" rx="5" fill="#F59E0B"/>
</svg>
